	<svg width="128.15mm" height="83.156mm" version="1.1" viewBox="0 0 128.15 83.156" xmlns="http://www.w3.org/2000/svg">
 <g transform="translate(38.231 .20995)">
  <g transform="translate(4.5176,5.0279)" onclick="buttonclick('move/d/1')">
   <path d="m37.372 77.974 6.8449-6.8449c0.20559-0.20566 0.20553-0.53903-1.23e-4 -0.74463-0.09872-0.09869-0.23256-0.15413-0.37216-0.15416h-5.5738l5.9461-5.9461c0.20559-0.20566 0.20553-0.53904-1.23e-4 -0.74463-0.09869-0.09869-0.23256-0.15413-0.37213-0.15416h-13.69c-0.21294-6.2e-5 -0.40495 0.12816-0.48652 0.32486-0.02662 0.06389-0.04023 0.13244-0.04001 0.20168 3e-5 0.13963 0.05553 0.27353 0.15426 0.37225l5.9461 5.9461h-5.5738c-0.21294-6.1e-5 -0.40496 0.12816-0.48653 0.32486-0.02662 0.06389-0.04023 0.13244-0.04001 0.20164 3.1e-5 0.13963 0.05553 0.27353 0.15426 0.37225l6.8449 6.8449c0.20566 0.20556 0.53894 0.20556 0.74454 0z" stroke-width=".030851"/>
   <path transform="scale(.26458)" d="m125.39 281.31c-11.533-11.591-13.346-13.704-12.566-14.643 0.74565-0.89846 2.8658-1.0976 11.688-1.0976h10.777l-11.656-11.734c-6.4777-6.5209-11.516-12.153-11.341-12.679 0.25223-0.75712 5.669-0.98227 27.239-1.1322 24.181-0.16811 26.969-0.0702 27.365 0.96088 0.31523 0.82147-2.8882 4.4814-11.261 12.866l-11.702 11.718h11.264c9.6558 0 11.327 0.16282 11.702 1.1402 0.31233 0.81393-3.4224 5.0041-13.051 14.643-7.4187 7.4265-13.824 13.503-14.235 13.503s-6.8108-6.0954-14.223-13.545z" fill="#e6e6e6" stroke="#000" stroke-width=".47571"/>
  </g>
  <g transform="translate(4.5176,5.0279)" onclick="buttonclick('move/r/1')">
   <path d="m78.485 36.352-6.8449-6.8449c-0.20566-0.20559-0.53903-0.20553-0.74463 1.23e-4 -0.09869 0.09872-0.15413 0.23256-0.15416 0.37216v5.5738l-5.9461-5.9461c-0.20566-0.20559-0.53904-0.20553-0.74463 1.23e-4 -0.09869 0.09869-0.15413 0.23256-0.15416 0.37213v13.69c-6.2e-5 0.21294 0.12816 0.40495 0.32486 0.48652 0.06389 0.02662 0.13244 0.04023 0.20168 0.04001 0.13963-3e-5 0.27353-0.05553 0.37225-0.15426l5.9461-5.9461v5.5738c-6.1e-5 0.21294 0.12816 0.40496 0.32486 0.48653 0.06389 0.02662 0.13244 0.04023 0.20164 0.04001 0.13963-3.1e-5 0.27353-0.05553 0.37225-0.15426l6.8449-6.8449c0.20556-0.20566 0.20556-0.53894 0-0.74454z" stroke-width=".030851"/>
   <path transform="scale(.26458)" d="m242.13 139.18c0-19.103 0.2342-27.245 0.79364-27.591 0.46176-0.28538 5.6177 4.3269 12.329 11.029 6.3446 6.3359 11.765 11.52 12.045 11.52 0.28034 0 0.59822-5.0361 0.70641-11.191 0.14992-8.5297 0.42217-11.266 1.1447-11.506 0.9382-0.31195 25.964 23.931 27.391 26.534 0.63193 1.1529-1.13 3.1988-12.837 14.905-7.8192 7.8192-13.979 13.433-14.536 13.248-0.74612-0.2481-1.0113-2.8731-1.1632-11.513-0.10819-6.1552-0.43339-11.191-0.72266-11.191s-5.6613 5.1428-11.938 11.429c-6.2765 6.2857-11.817 11.429-12.313 11.429-0.70962 0-0.90123-5.762-0.90123-27.101z" fill="#fff" stroke="#000" stroke-width=".47571"/>
   <path transform="scale(.26458)" d="m242.84 138.78c0-14.834 0.27511-26.071 0.63824-26.071 0.35103 0 5.8813 5.0621 12.289 11.249 13.516 13.05 12.592 13.115 12.726-0.89205 0.0452-4.7143 0.37392-9.0325 0.73055-9.5961 0.50658-0.80056 2.4962 0.70572 9.0962 6.8865 10.965 10.268 17.376 16.985 17.376 18.203 0 1.2636-11.608 13.63-19.599 20.879-4.8826 4.4294-6.3766 5.4376-6.8796 4.6429-0.3534-0.55836-0.67951-4.8723-0.72468-9.5866-0.13428-14.012 0.76705-13.949-12.666-0.89286-6.3665 6.1875-11.893 11.25-12.282 11.25-0.45241 0-0.70613-9.3675-0.70613-26.071z" fill="#e6e6e6" stroke="#000" stroke-width=".47571"/>
  </g>
  <g transform="translate(4.5176,5.0279)" onclick="buttonclick('move/u/1')">
  <g transform="matrix(0 -.030851 .030851 0 30.026 9.7148)">
    <path d="m472.87 214-221.87-221.87c-6.666-6.664-17.472-6.662-24.136 4e-3 -3.199 3.2-4.996 7.538-4.997 12.063v180.67l-192.73-192.74c-6.666-6.664-17.472-6.662-24.136 4e-3 -3.199 3.199-4.996 7.538-4.997 12.062v443.73c-2e-3 6.902 4.154 13.126 10.53 15.77 2.071 0.863 4.293 1.304 6.537 1.297 4.526-1e-3 8.866-1.8 12.066-5l192.73-192.73v180.67c-2e-3 6.902 4.154 13.126 10.53 15.77 2.071 0.863 4.293 1.304 6.536 1.297 4.526-1e-3 8.866-1.8 12.066-5l221.87-221.87c6.663-6.666 6.663-17.469 0-24.133z"/>
   </g>
   <path transform="scale(.26458)" d="m112.44 35.489c-0.28538-0.46175 4.3269-5.6177 11.029-12.329 6.3359-6.3446 11.52-11.773 11.52-12.063s-4.9478-0.52783-10.995-0.52783c-9.6438 0-11.052-0.14767-11.456-1.2016-0.34341-0.8949 2.9696-4.6323 12.98-14.643 7.3927-7.3927 13.756-13.441 14.142-13.441 0.38525 0 6.7703 6.0762 14.189 13.503 9.6287 9.6388 13.363 13.829 13.051 14.643-0.37506 0.97739-2.0461 1.1402-11.702 1.1402h-11.264l11.702 11.718c8.3198 8.3312 11.575 12.047 11.264 12.857-0.38951 1.015-3.36 1.1395-27.203 1.1395-18.858 0-26.911-0.23449-27.256-0.79364z" fill="#fff" stroke="#000" stroke-width=".47571"/>
   <path transform="scale(.26458)" d="m113.56 34.93c0-0.35103 5.0621-5.8813 11.249-12.289 13.11-13.579 13.247-12.602-1.7849-12.715-8.0542-0.060592-9.4643-0.23666-9.4643-1.1818 0-0.61081 5.7896-6.9002 12.866-13.976l12.866-12.866 3.9999 3.4172c5.8354 4.9854 22.411 22.407 22.411 23.554 0 0.79173-2.2259 0.98137-11.519 0.98137h-11.519l11.519 11.803c6.3353 6.4916 11.519 12.277 11.519 12.857 0 0.91028-3.5613 1.0543-26.071 1.0543-14.834 0-26.071-0.2751-26.071-0.63824z" fill="#e6e6e6" stroke="#000" stroke-width=".47571"/>
  </g>
  <g transform="translate(4.5176,5.0279)" onclick="buttonclick('move/l/1')">
   <g transform="matrix(-.030851 0 0 -.030851 10.225 43.699)">
    <path d="m472.87 214-221.87-221.87c-6.666-6.664-17.472-6.662-24.136 4e-3 -3.199 3.2-4.996 7.538-4.997 12.063v180.67l-192.73-192.74c-6.666-6.664-17.472-6.662-24.136 4e-3 -3.199 3.199-4.996 7.538-4.997 12.062v443.73c-2e-3 6.902 4.154 13.126 10.53 15.77 2.071 0.863 4.293 1.304 6.537 1.297 4.526-1e-3 8.866-1.8 12.066-5l192.73-192.73v180.67c-2e-3 6.902 4.154 13.126 10.53 15.77 2.071 0.863 4.293 1.304 6.536 1.297 4.526-1e-3 8.866-1.8 12.066-5l221.87-221.87c6.663-6.666 6.663-17.469 0-24.133z"/>
   </g>
   <path transform="scale(.26458)" d="m-3.0553 152.88c-7.3632-7.3708-13.388-13.723-13.388-14.116 0-1.3114 26.956-27.686 27.777-27.178 0.52737 0.32593 0.79429 4.1972 0.79429 11.52 0 6.0661 0.24484 11.029 0.54409 11.029s5.6794-5.1428 11.956-11.429c6.2765-6.2857 11.783-11.429 12.237-11.429s1.0199 0.50843 1.2584 1.1298c0.56608 1.4752 0.56608 51.265 0 52.74-0.23846 0.62142-0.80473 1.1298-1.2584 1.1298s-5.9601-5.1429-12.237-11.429c-6.2765-6.2857-11.649-11.429-11.938-11.429-0.28927 0-0.61447 5.0361-0.72266 11.191-0.11782 6.7031-0.48529 11.287-0.91628 11.43-0.39577 0.13149-6.744-5.7916-14.107-13.162z" fill="#fff" stroke="#000" stroke-width=".47571"/>
   <path transform="scale(.26458)" d="m24.536 153.97c-13.855-13.441-12.899-13.453-13.101 0.16687-0.06677 4.5179-0.35307 8.8024-0.63622 9.5212-0.43076 1.0935-2.0883-0.20541-10.152-7.9557-5.3004-5.0944-11.204-11.097-13.119-13.338l-3.4818-4.0756 13.071-12.79c7.1892-7.0346 13.347-12.79 13.684-12.79 0.3369 0 0.65058 4.0982 0.69706 9.1071 0.14346 15.46-0.95285 15.31 13.02 1.774 6.5966-6.3904 12.293-11.434 12.659-11.208 0.39078 0.24151 0.66501 11.127 0.66501 26.398s-0.27424 26.157-0.66501 26.398c-0.36576 0.22605-6.0546-4.8175-12.642-11.208z" fill="#e6e6e6" stroke="#000" stroke-width=".47571"/>
  </g>
  <g transform="translate(4.5176,5.0279)" onclick="buttonclick('move/u/0')">
   <g stroke-width=".031434">
    <path d="m31.318 25.718c-3.138-3.138-3.1385-8.2262-4.44e-4 -11.364s8.2267-3.1376 11.364 4.44e-4c3.1376 3.138 3.1385 8.2262 4.45e-4 11.364-3.138 3.138-8.2267 3.138-11.364-4.44e-4z" fill="#22241c"/>
    <path d="m33.388 23.044 3.1142-6.7257a1.3812 1.3812 0 0 1 0.2485-0.34763c0.09112-0.09113 0.20693-0.1407 0.31451-0.1158 0.08313 0.01645 0.15781 0.07469 0.2405 0.15737s0.13225 0.18248 0.20693 0.3234c0.9611 2.0538 2.3361 4.6877 3.0987 6.7257l-0.19893 0.1327c-0.73749-0.53834-1.5663-1.1356-2.2365-1.7066a1.5893 1.5893 0 0 0-1.1594-0.48055c-0.43076 0-0.84507 0.14892-1.1683 0.4721l-2.2445 1.7146-0.01645 0.01645-0.18226-0.14892z" fill="#eef4d7" fill-rule="evenodd"/>
   </g>
   <path transform="scale(.26458)" d="m130.37 104.1c-4.6178-1.632-7.2738-3.2462-10.987-6.6771-9.2891-8.5835-12.071-22.754-6.7136-34.202 8.8581-18.929 33.526-23.32 48.257-8.589 14.736 14.736 10.341 39.395-8.6014 48.265-6.4668 3.028-15.406 3.518-21.956 1.2034zm2.3462-20.314c3.4663-2.6076 5.9023-3.9286 7.2449-3.9286 1.367 0 3.6504 1.2735 7.0436 3.9286 4.8541 3.7981 6.5537 4.647 6.5537 3.2735 0-1.0099-2.4701-6.617-7.6706-17.412-3.9346-8.1675-4.9883-9.8172-6.1594-9.6429-1.0714 0.15946-2.937 3.4733-7.7199 13.713-3.4689 7.4263-6.3072 13.614-6.3072 13.75 0 1.0118 2.5685-0.33603 7.0149-3.681z" fill="#666" stroke="#000" stroke-width=".47571"/>
   <path transform="scale(.26458)" d="m130.34 103.46c-5.5403-1.817-12.147-7.1196-15.205-12.203-3.4931-5.8076-4.661-10.57-4.2962-17.52 0.38232-7.2842 3.2164-13.602 8.4484-18.834 11.426-11.426 30.675-11.119 41.697 0.66489 13.677 14.622 9.4762 37.631-8.4842 46.473-4.0187 1.9784-5.5852 2.3343-11.271 2.5609-5.1704 0.20605-7.534-0.0419-10.89-1.1424zm2.8226-19.297c2.9299-1.9771 5.942-3.5947 6.6935-3.5947 0.75148 0 4.0359 1.7766 7.2986 3.9479 3.648 2.4277 6.1875 3.6927 6.5952 3.285 0.70229-0.7023-2.6868-8.8509-8.6527-20.804-3.7986-7.6109-5.3649-8.6782-7.6527-5.2144-2.1921 3.3188-12.35 25.528-11.963 26.156 0.51807 0.841 1.7026 0.25876 7.681-3.7754z" fill="#333" stroke="#000" stroke-width=".47571"/>
  </g>
  <g transform="translate(4.5176,5.0279)" onclick="buttonclick('move/l/0')">
   <g stroke-width=".031434">
    <path d="m25.718 42.407c-3.138 3.138-8.2262 3.1385-11.364 4.44e-4s-3.1376-8.2267 4.44e-4 -11.364c3.138-3.1376 8.2262-3.1385 11.364-4.45e-4 3.138 3.138 3.138 8.2267-4.44e-4 11.364z" fill="#22241c"/>
    <path d="m23.044 40.336-6.7257-3.1142a1.3812 1.3812 0 0 1-0.34763-0.2485c-0.09114-0.09112-0.1407-0.20693-0.1158-0.31451 0.01645-0.08313 0.07469-0.15781 0.15737-0.2405s0.18248-0.13225 0.3234-0.20693c2.0538-0.9611 4.6877-2.3361 6.7257-3.0987l0.1327 0.19893c-0.53834 0.73749-1.1356 1.5663-1.7066 2.2365a1.5893 1.5893 0 0 0-0.48055 1.1594c0 0.43076 0.14892 0.84507 0.4721 1.1683l1.7146 2.2445 0.01645 0.01645-0.14892 0.18226z" fill="#d7eef4" fill-rule="evenodd"/>
   </g>
   <path transform="scale(.26458)" d="m70.7 168.34c-9.3269-1.5305-17.97-8.3311-22.356-17.59-2.0985-4.4302-2.2868-5.4155-2.2868-11.97s0.18822-7.5402 2.2868-11.97c9.3451-19.728 34.5-24.077 48.956-8.464 9.0999 9.8289 10.916 22.112 5.0432 34.106-2.1079 4.305-8.4696 10.767-12.75 12.95-5.5284 2.8204-12.759 3.9452-18.893 2.9388zm17.143-16.413c0-0.42927-1.7679-3.0557-3.9286-5.8366-2.865-3.6872-3.9286-5.6667-3.9286-7.3115s1.0636-3.6243 3.9286-7.3115c4.2988-5.5326 4.8405-6.9867 2.3214-6.2315-3.7429 1.1221-26.187 11.991-26.512 12.839-0.19573 0.51006 0.18495 1.4101 0.84596 2 1.1613 1.0364 25.652 12.597 26.738 12.621 0.29464 7e-3 0.53572-0.3393 0.53572-0.76858z" fill="#666" stroke="#000" stroke-width=".47571"/>
   <path transform="scale(.26458)" d="m70.018 167.68c-8.2353-1.6968-16.192-7.9918-20.747-16.415-2.4284-4.4904-2.4997-4.8478-2.4892-12.48 0.0099-7.235 0.1721-8.1682 2.0487-11.786 5.8797-11.335 15.602-17.447 27.583-17.344 9.613 0.0831 17.776 4.5991 23.378 12.934 3.6487 5.4286 5.1938 10.292 5.1938 16.348 0 11.609-7.9773 23.189-18.752 27.22-4.5845 1.7153-11.931 2.4048-16.216 1.522zm17.087-17.997c-4.2715-5.7515-6.4053-9.3788-6.4053-10.888 0-1.5251 5.0171-9.8516 6.4813-10.756 0.36387-0.22488 0.66158-1.0729 0.66158-1.8846 0-1.2627-0.3131-1.4131-2.1692-1.0419-1.1931 0.23862-7.5413 3.0913-14.107 6.3393-9.4932 4.6961-11.938 6.198-11.938 7.334 0 1.1157 1.9555 2.4005 8.9286 5.8665 18.159 9.026 22.362 10.166 18.548 5.0313z" fill="#333" stroke="#000" stroke-width=".47571"/>
  </g>
  <g transform="translate(4.5176,5.0279)" onclick="buttonclick('move/r/0')">
   <g stroke-width=".031434">
    <path d="m48.282 31.043c3.138-3.138 8.2262-3.1385 11.364-4.44e-4 3.138 3.138 3.1376 8.2267-4.45e-4 11.364-3.138 3.1376-8.2262 3.1385-11.364 4.45e-4 -3.138-3.138-3.138-8.2267 4.45e-4 -11.364z" fill="#22241c"/>
    <path d="m50.956 33.113 6.7257 3.1142a1.3812 1.3812 0 0 1 0.34763 0.2485c0.09113 0.09112 0.1407 0.20693 0.1158 0.31451-0.01645 0.08313-0.07469 0.15781-0.15737 0.2405-0.08269 0.08269-0.18248 0.13225-0.3234 0.20693-2.0538 0.9611-4.6877 2.3361-6.7257 3.0987l-0.1327-0.19893c0.53834-0.73749 1.1356-1.5663 1.7066-2.2365a1.5893 1.5893 0 0 0 0.48055-1.1594c0-0.43076-0.14892-0.84507-0.4721-1.1683l-1.7146-2.2445-0.01645-0.01645 0.14892-0.18226z" fill="#f4d7d7" fill-rule="evenodd"/>
   </g>
   <path transform="scale(.26458)" d="m199.48 168.42c-9.3508-1.3609-18.404-8.1641-22.572-16.961-2.1348-4.5067-2.2808-5.3176-2.2808-12.672 0-7.097 0.1919-8.2669 1.9837-12.093 5.2955-11.308 15.078-17.621 27.302-17.621 15.18 0 27.214 10.226 29.599 25.152 3.1522 19.732-14.126 37.093-34.032 34.196zm-0.0845-18.574c2.8777-1.2326 8.6072-3.9037 12.732-5.9358 5.7585-2.8369 7.5-4.0235 7.5-5.1106 0-1.1389-2.628-2.6436-13.437-7.6933-7.3904-3.4526-13.728-6.0978-14.084-5.878s1.2715 2.9864 3.6157 6.148c2.3442 3.1617 4.2622 6.484 4.2622 7.3828 0 0.89889-1.7679 4.0551-3.9286 7.0138s-3.9286 5.7655-3.9286 6.2374c0 0.95472-0.0464 0.96853 7.2678-2.1643z" fill="#666" stroke="#000" stroke-width=".47571"/>
   <path transform="scale(.26458)" d="m199.24 168.06c-6.7672-1.07-13.764-5.2422-18.348-10.941-1.7354-2.1575-3.0326-4.2841-4.1897-6.869-1.5188-3.3926-1.604-3.8956-1.7012-10.04-0.12782-8.0823 0.11186-9.6562 2.0962-13.765 4.2032-8.703 11.509-14.63 20.215-16.402 5.3887-1.0962 11.788-0.72098 16.68 0.97809 4.319 1.5001 7.6033 3.5676 10.885 6.8524 3.436 3.4392 5.5505 6.8407 7.0469 11.336 1.2656 3.8018 1.4993 5.3077 1.4993 9.6606 0 3.2896-0.056 4.095-0.39151 5.625-1.2663 5.7758-3.7743 10.51-7.7754 14.679-4.4503 4.6365-10.254 7.7416-16.448 8.8006-2.4928 0.42617-7.1489 0.46755-9.5681 0.085zm-5.138-15.683c5.8799-2.2151 20.77-9.2703 23.809-11.281 0.93098-0.61602 1.5585-1.1742 1.7777-1.5812 0.31842-0.59126 0.32131-0.6657 0.0481-1.2386-0.18997-0.39838-0.72852-0.90061-1.5547-1.4498-3.6027-2.395-24.282-11.884-25.899-11.884-0.20692 0-0.42353 0.12332-0.48136 0.27403-0.15333 0.39957 0.80674 2.235 2.2385 4.2795 4.0802 5.8264 5.5564 8.2906 5.5564 9.2752 0 0.99386-1.3116 3.2024-5.5739 9.3855-2.9228 4.24-2.9022 5.3439 0.0787 4.2209z" fill="#333" stroke="#000" stroke-width=".11893"/>
  </g>
  <g transform="translate(4.5176,5.0279)" onclick="buttonclick('move/d/0')">
   <g stroke-width=".031434">
    <path d="m42.682 47.732c3.138 3.138 3.1385 8.2262 4.44e-4 11.364s-8.2267 3.1376-11.364-4.44e-4c-3.1376-3.138-3.1385-8.2262-4.45e-4 -11.364 3.138-3.138 8.2267-3.138 11.364 4.44e-4z" fill="#22241c"/>
    <path d="m40.612 50.406-3.1142 6.7257a1.3812 1.3812 0 0 1-0.2485 0.34763c-0.09112 0.09114-0.20693 0.1407-0.31451 0.1158-0.08313-0.01645-0.15781-0.07469-0.2405-0.15737-0.08268-0.08269-0.13225-0.18248-0.20693-0.3234-0.9611-2.0538-2.3361-4.6877-3.0987-6.7257l0.19893-0.1327c0.73749 0.53834 1.5663 1.1356 2.2365 1.7066a1.5893 1.5893 0 0 0 1.1594 0.48055c0.43076 0 0.84507-0.14892 1.1683-0.4721l2.2445-1.7146 0.01645-0.01645 0.18226 0.14892z" fill="#eef4d7" fill-rule="evenodd"/>
   </g>
   <path transform="scale(.26458)" d="m132.13 230.85c-8.5245-2.2807-15.559-8.2957-19.531-16.7-1.7715-3.7487-2.2426-5.7891-2.4738-10.714-0.51688-11.01 4.0023-20.114 13.135-26.461 8.1006-5.6299 19.954-6.5664 29.077-2.2971 12.301 5.7564 19.395 19.185 17 32.182-3.1985 17.359-20.441 28.476-37.208 23.99zm15.267-26.387c3.3887-7.2854 6.1613-13.553 6.1613-13.929 0-1.3603-1.5012-0.60962-6.4916 3.2462-3.5073 2.7099-5.7334 3.9286-7.1762 3.9286-1.4264 0-3.7516-1.2494-7.3112-3.9286-4.5042-3.3902-6.8781-4.6546-6.8781-3.6635 0 0.60701 6.6658 15.236 9.6488 21.175 2.3265 4.6323 3.593 6.4168 4.5543 6.4168 1.0299 0 2.7275-3.0012 7.4928-13.246z" fill="#666" stroke="#000" stroke-width=".47571"/>
   <path transform="scale(.26458)" d="m133.3 230.75c-8.8396-1.9224-16.887-8.7918-20.74-17.705-1.5722-3.6364-1.9348-5.7342-1.9403-11.226-4e-3 -3.5505 0.16934-5.3151 0.73507-7.5 2.6089-10.076 10.74-18.217 20.923-20.949 4.013-1.0768 11.324-1.0875 15.23-0.0222 6.4969 1.7718 12.821 6.3042 16.683 11.956 5.8106 8.5047 6.7189 19.601 2.3578 28.805-3.9013 8.2342-11.148 14.211-19.952 16.455-3.3414 0.85157-9.8193 0.94249-13.295 0.18659zm8.6936-14.734c2.3793-3.7164 12.015-24.714 11.816-25.748-0.27619-1.4341-1.5456-0.7958-8.6164 4.3329-1.5389 1.1162-3.4259 2.2176-4.1934 2.4476-1.7092 0.5121-3.0651-0.0174-6.8918-2.6912-5.8791-4.108-7.1109-4.8591-7.9692-4.8591-0.80718 0-0.87743 0.10483-0.65817 0.98215 0.35301 1.4125 6.267 14.4 9.2052 20.216 2.6395 5.2242 4.1875 7.3733 5.311 7.3733 0.4394 0 1.149-0.72996 1.9964-2.0536z" fill="#333" stroke="#000" stroke-width=".23786"/>
  </g>
 </g>
 <g transform="translate(2.1167)">
  <g transform="translate(-107.91 -.14782)">
   <g transform="translate(4.5176,5.0279)" onclick="buttonclick('move/df/1')">
    <g transform="translate(-1.5875)">
     <g transform="translate(0,4.2333)">
      <g transform="matrix(.032289 0 0 .032289 107.1 55.574)">
       <path d="m160 0h-106.67c-29.418 0-53.333 23.936-53.333 53.333v106.67c0 5.888 4.779 10.667 10.667 10.667s10.666-4.779 10.666-10.667v-106.67c0-17.643 14.357-32 32-32h106.67c5.888 0 10.667-4.779 10.667-10.667s-4.779-10.666-10.667-10.666z"/>
      </g>
      <g stroke-width=".032289">
       <path d="m121.91 55.574h-3.4442c-0.19011 0-0.34442 0.15431-0.34442 0.34443s0.15431 0.34439 0.34442 0.34439h3.4442c0.56968 0 1.0332 0.46357 1.0332 1.0332v3.4442c0 0.19012 0.15431 0.34443 0.34443 0.34443s0.34443-0.15431 0.34443-0.34443v-3.4442c-4e-5 -0.9492-0.77223-1.7221-1.7221-1.7221z"/>
       <path d="m112.27 71.417h-3.4442c-0.56968 0-1.0332-0.46357-1.0332-1.0332v-3.4442c0-0.19012-0.15431-0.34443-0.34443-0.34443-0.19011 0-0.34439 0.15431-0.34439 0.34443v3.4442c0 0.9492 0.77219 1.7221 1.7221 1.7221h3.4442c0.19012 0 0.34443-0.15431 0.34443-0.34443s-0.15431-0.34439-0.34443-0.34439z"/>
       <path d="m123.29 66.595c-0.19012 0-0.34443 0.15431-0.34443 0.34443v3.4442c0 0.56968-0.46357 1.0332-1.0332 1.0332h-3.4441c-0.19011 0-0.34442 0.15431-0.34442 0.34443s0.15431 0.34443 0.34442 0.34443h3.4442c0.94988-3.2e-5 1.7221-0.7729 1.7221-1.7221v-3.4442c0-0.19012-0.15431-0.34443-0.34442-0.34443z"/>
      </g>
     </g>
     <path d="m115.37 71.402c-1.831 0-3.3291-1.4981-3.3291-3.3291s1.4981-3.3291 3.3291-3.3291 3.3291 1.4981 3.3291 3.3291-1.4981 3.3291-3.3291 3.3291zm0-6.3253c-1.6646 0-2.9962 1.3316-2.9962 2.9962s1.3316 2.9962 2.9962 2.9962 2.9962-1.3316 2.9962-2.9962-1.3316-2.9962-2.9962-2.9962z" stroke-width=".33291"/>
    </g>
    <rect x="105.45" y="59.704" width="16.653" height="16.719" fill-opacity="0" stroke-opacity="0"/>
   </g>
   <g transform="translate(4.5176,5.0279)" onclick="buttonclick('move/f/1')">
    <g transform="translate(-1.5875)">
     <path d="m115.37 11.033c-3.3909 0-6.1652-2.7743-6.1652-6.1652s2.7743-6.1652 6.1652-6.1652 6.1652 2.7743 6.1652 6.1652-2.7743 6.1652-6.1652 6.1652zm0-11.714c-3.0826 0-5.5487 2.4661-5.5487 5.5487s2.4661 5.5487 5.5487 5.5487 5.5487-2.4661 5.5487-5.5487-2.4661-5.5487-5.5487-5.5487z"/>
     <g transform="translate(0,-5.2917)">
      <path d="m112.27 1.894h-3.4442c-0.94988 0-1.7221 0.77287-1.7221 1.7221v3.4442c0 0.19012 0.15431 0.34443 0.34443 0.34443 0.19011 0 0.34439-0.15431 0.34439-0.34443v-3.4442c0-0.56967 0.46357-1.0332 1.0332-1.0332h3.4442c0.19012 0 0.34443-0.15431 0.34443-0.34443s-0.15431-0.34439-0.34443-0.34439z"/>
      <path d="m121.91 1.894h-3.4442c-0.19011 0-0.34442 0.15431-0.34442 0.34443s0.15431 0.34439 0.34442 0.34439h3.4442c0.56968 0 1.0332 0.46357 1.0332 1.0332v3.4442c0 0.19012 0.15431 0.34443 0.34443 0.34443s0.34443-0.15431 0.34443-0.34443v-3.4442c-4e-5 -0.9492-0.77223-1.7221-1.7221-1.7221z"/>
      <path d="m112.27 17.737h-3.4442c-0.56968 0-1.0332-0.46357-1.0332-1.0332v-3.4442c0-0.19012-0.15431-0.34443-0.34443-0.34443-0.19011 0-0.34439 0.15431-0.34439 0.34443v3.4442c0 0.9492 0.77219 1.7221 1.7221 1.7221h3.4442c0.19012 0 0.34443-0.15431 0.34443-0.34443s-0.15431-0.34439-0.34443-0.34439z"/>
      <path d="m123.29 12.915c-0.19012 0-0.34443 0.15431-0.34443 0.34443v3.4442c0 0.56968-0.46357 1.0332-1.0332 1.0332h-3.4441c-0.19011 0-0.34442 0.15431-0.34442 0.34443s0.15431 0.34443 0.34442 0.34443h3.4442c0.94988-3.2e-5 1.7221-0.7729 1.7221-1.7221v-3.4442c0-0.19012-0.15431-0.34443-0.34442-0.34443z"/>
     </g>
    </g>
    <rect x="105.51" y="-3.3977" width="16.405" height="16.719" fill-opacity="0" stroke-opacity="0"/>
   </g>
   <g transform="translate(4.5176,5.0279)" onclick="buttonclick('move/f/0')">
    <g transform="translate(-1.5875,-1.5085)">
     <path d="m115.32 31.843c-2.419 0-4.3982-1.9792-4.3982-4.3982s1.9792-4.3982 4.3982-4.3982 4.3982 1.9792 4.3982 4.3982-1.9792 4.3982-4.3982 4.3982zm0-8.3566c-2.1991 0-3.9584 1.7593-3.9584 3.9584s1.7593 3.9584 3.9584 3.9584 3.9584-1.7593 3.9584-3.9584-1.7593-3.9584-3.9584-3.9584z" stroke-width=".43982"/>
     <path d="m115.32 30.557c-1.7116 0-3.1119-1.4004-3.1119-3.112s1.4004-3.112 3.1119-3.112c1.7116 0 3.112 1.4004 3.112 3.112s-1.4004 3.112-3.112 3.112zm0-5.9127c-1.556 0-2.8008 1.2448-2.8008 2.8008s1.2448 2.8008 2.8008 2.8008 2.8008-1.2448 2.8008-2.8008-1.2448-2.8008-2.8008-2.8008z" stroke-width=".3112"/>
    </g>
    <rect x="109.47" y="21.332" width="8.6539" height="8.8198" fill-opacity="0" stroke-opacity="0"/>
   </g>
   <g transform="translate(4.5176,5.0279)" onclick="buttonclick('move/df/0')">
    <g transform="translate(-1.5875 .46689)">
     <path d="m115.37 50.936c-2.419 0-4.3982-1.9792-4.3982-4.3982s1.9792-4.3982 4.3982-4.3982 4.3982 1.9792 4.3982 4.3982-1.9792 4.3982-4.3982 4.3982zm0-8.3566c-2.1991 0-3.9584 1.7593-3.9584 3.9584s1.7593 3.9584 3.9584 3.9584 3.9584-1.7593 3.9584-3.9584-1.7593-3.9584-3.9584-3.9584z" stroke-width=".43982"/>
     <path d="m115.37 48.364c-1.0041 0-1.8257-0.82157-1.8257-1.8257 0-1.0041 0.82158-1.8257 1.8257-1.8257 1.0042 0 1.8257 0.82157 1.8257 1.8257 0 1.0041-0.82156 1.8257-1.8257 1.8257zm0-3.4689c-0.91285 0-1.6431 0.73029-1.6431 1.6431 0 0.91286 0.73028 1.6431 1.6431 1.6431 0.91287 0 1.6432-0.73029 1.6432-1.6431 0-0.91286-0.73028-1.6431-1.6432-1.6431z" stroke-width=".18257"/>
    </g>
    <g fill-opacity="0" stroke-opacity="0">
     <path transform="matrix(.26458 0 0 .26458 -4.5176 -5.0279)" d="m445.88 202.59c-3.8188-0.74928-5.901-4.9004-4.2435-8.4599 1.8776-4.0324 7.1728-4.7593 10.064-1.3817 3.7148 4.3399-0.19206 10.946-5.8204 9.8416z"/>
     <path transform="matrix(.26458 0 0 .26458 -4.5176 -5.0279)" d="m443.61 211.08c-4.0022-0.96908-7.9544-4.1145-9.6941-7.7152-1.2015-2.4868-1.5862-4.1803-1.5775-6.9448 0.0126-4.0139 1.4607-7.3415 4.5058-10.354 2.8178-2.7877 6.2092-4.1669 10.247-4.1669 4.127 0 7.4084 1.3567 10.379 4.2913 4.6969 4.6392 5.7845 11.185 2.8493 17.15-1.7911 3.6395-5.7482 6.7817-9.7193 7.7178-1.9375 0.45671-5.1537 0.46695-6.9902 0.0222zm6.6698-8.1698c2.1446-1.0994 3.882-3.8911 3.882-6.2377 0-2.479-1.8212-5.2596-4.1573-6.3474-2.6832-1.2495-6.0412-0.56707-8.022 1.6302-1.3406 1.4871-1.7816 2.6465-1.7942 4.7172-0.0152 2.4887 0.9015 4.1959 3.175 5.9131 1.5225 1.1499 4.9892 1.3126 6.9164 0.32459z"/>
     <path transform="matrix(.26458 0 0 .26458 -4.5176 -5.0279)" d="m444.51 212.97c-3.6608-0.6674-7.1639-2.6185-9.6683-5.385-1.5721-1.7366-3.1863-4.7755-3.7787-7.1137-0.48913-1.9307-0.48913-5.6656 0-7.5963 1.1727-4.629 4.6293-8.9592 8.7242-10.929 6.7331-3.2392 13.64-2.0612 18.935 3.2297 3.3636 3.3607 4.7818 6.7707 4.7818 11.498 0 2.7063-0.47553 4.9044-1.5136 6.9967-2.141 4.3153-5.7432 7.4111-10.205 8.7706-1.975 0.60176-5.4803 0.85691-7.2757 0.5296zm6.1089-1.6621c5.2597-1.2397 9.4165-5.2376 11.027-10.605 0.61142-2.0381 0.61123-6.0188-3.8e-4 -8.0704-1.9827-6.6508-7.7232-10.985-14.549-10.985-10.435 0-17.626 10.226-14.148 20.121 1.6202 4.6099 5.7984 8.3849 10.557 9.5386 1.9388 0.47004 5.1209 0.47047 7.1128 1e-3z"/>
     <path transform="matrix(.26458 0 0 .26458 -4.5176 -5.0279)" d="m445.83 213.21c-6.3015-0.52493-11.803-4.5972-14.141-10.467-0.84688-2.1264-1.1828-4.0781-1.1241-6.5311 0.0557-2.3255 0.48676-4.2589 1.4053-6.3028 1.009-2.245 2.6427-4.3896 4.5751-6.0057 2.3372-1.9547 5.2308-3.231 8.3653-3.6897 1.0801-0.15807 3.3076-0.15759 4.4194 9.6e-4 4.7592 0.67873 8.9007 3.2853 11.59 7.2948 0.63576 0.9477 1.4362 2.5231 1.8153 3.5724 0.29952 0.8293 0.66266 2.2716 0.80272 3.1883 0.13906 0.91011 0.19014 3.0101 0.0961 3.951-0.32122 3.214-1.5561 6.2404-3.5917 8.8021-0.58558 0.73696-1.8168 1.9743-2.5369 2.5495-2.3604 1.8855-5.2587 3.1296-8.2391 3.5367-0.88764 0.12124-2.5883 0.17075-3.4369 0.10005zm3.7526-1.7595c4.8853-0.84947 8.8607-3.8106 10.986-8.1833 0.7286-1.4987 1.1563-2.8899 1.3977-4.5457 0.15139-1.0386 0.15138-3.1332-2e-5 -4.1353-0.49881-3.3014-1.8392-6.0465-4.0808-8.3574-3.7718-3.8883-9.1971-5.4089-14.54-4.0752-5.2466 1.3097-9.4429 5.5213-10.751 10.79-0.97048 3.9101-0.39473 7.9805 1.6064 11.356 2.2979 3.8766 6.2087 6.5182 10.614 7.1694 1.0324 0.1526 1.0216 0.15204 2.5569 0.13207 1.121-0.0146 1.6248-0.0489 2.2097-0.15063z"/>
     <path transform="matrix(.26458 0 0 .26458 -4.5176 -5.0279)" d="m445.35 211.5c-3.6856-0.44308-7.1717-2.2955-9.5521-5.0758-2.4289-2.8369-3.706-6.4513-3.5914-10.165 0.0395-1.2817 0.14823-2.1035 0.43007-3.2514 1.0345-4.2135 3.9458-7.8218 7.8442-9.7223 2.1925-1.0688 4.1752-1.5287 6.6055-1.5322 2.112-3e-3 3.9441 0.3521 5.7764 1.1198 3.3886 1.4197 6.0343 3.9098 7.6408 7.1916 0.71749 1.4656 1.1598 2.893 1.4 4.5178 0.15223 1.0299 0.14947 3.1761-5e-3 4.2021-0.71365 4.7278-3.4574 8.6902-7.5997 10.975-1.4466 0.79805-3.05 1.3494-4.8138 1.6552-0.71405 0.12382-3.3574 0.17773-4.1344 0.0843zm2.4607-7.9512c0.85503-0.0979 1.5061-0.28504 2.2744-0.6536 1.8673-0.89578 3.2014-2.5035 3.7407-4.5076 0.14811-0.55048 0.16487-0.72507 0.16487-1.7176 0-0.99599-0.0165-1.166-0.16698-1.7259-0.64306-2.3919-2.4539-4.2497-4.8068-4.9316-3.9223-1.1366-8.0016 1.4093-8.7207 5.4426-0.11534 0.64692-0.11419 1.763 2e-3 2.4322 0.51544 2.9557 3.0236 5.3084 6.0301 5.6563 0.67158 0.0777 0.84378 0.0783 1.482 5e-3z"/>
     <path transform="matrix(.26458 0 0 .26458 -4.5176 -5.0279)" d="m445.35 211.5c-3.6856-0.44308-7.1717-2.2955-9.5521-5.0758-2.4289-2.8369-3.706-6.4513-3.5914-10.165 0.0395-1.2817 0.14823-2.1035 0.43007-3.2514 1.0345-4.2135 3.9458-7.8218 7.8442-9.7223 2.1925-1.0688 4.1752-1.5287 6.6055-1.5322 2.112-3e-3 3.9441 0.3521 5.7764 1.1198 3.3886 1.4197 6.0343 3.9098 7.6408 7.1916 0.71749 1.4656 1.1598 2.893 1.4 4.5178 0.15223 1.0299 0.14947 3.1761-5e-3 4.2021-0.71365 4.7278-3.4574 8.6902-7.5997 10.975-1.4466 0.79805-3.05 1.3494-4.8138 1.6552-0.71405 0.12382-3.3574 0.17773-4.1344 0.0843zm2.4607-7.9512c0.85503-0.0979 1.5061-0.28504 2.2744-0.6536 1.8673-0.89578 3.2014-2.5035 3.7407-4.5076 0.14811-0.55048 0.16487-0.72507 0.16487-1.7176 0-0.99599-0.0165-1.166-0.16698-1.7259-0.64306-2.3919-2.4539-4.2497-4.8068-4.9316-3.9223-1.1366-8.0016 1.4093-8.7207 5.4426-0.11534 0.64692-0.11419 1.763 2e-3 2.4322 0.51544 2.9557 3.0236 5.3084 6.0301 5.6563 0.67158 0.0777 0.84378 0.0783 1.482 5e-3z"/>
     <rect x="109.44" y="42.558" width="8.6539" height="8.8198"/>
    </g>
   </g>
  </g>
 </g>
</svg>
